<svg width="212" height="212" viewBox="0 0 212 212" fill="none" xmlns="http://www.w3.org/2000/svg">
<path d="M139.576 177.51C179.069 158.966 196.053 111.918 177.509 72.4238C158.966 32.9301 111.917 15.9466 72.4233 34.4902C32.9296 53.0338 15.9461 100.082 34.4897 139.576C53.0333 179.07 100.082 196.053 139.576 177.51Z" fill="#F47521"/>
<path d="M87.7756 89.4844C87.0509 89.8247 86.6882 90.4553 86.6835 91.3872L88.4179 137.216C88.4837 138.105 88.8787 138.389 89.6034 138.049L100.881 132.754C101.672 132.382 102.035 131.752 101.973 130.851L101.443 116.651L101.44 116.607L100.877 104.759L100.848 104.773L100.524 97.3166L99.8852 83.7896L87.7796 89.4736L87.7756 89.4844Z" fill="white"/>
<path d="M124.264 77.4504C124.84 78.678 125.17 80.2649 125.247 82.2148L125.747 95.4095C125.823 97.3593 125.757 99.0059 125.563 100.361C125.358 101.711 124.956 102.893 124.349 103.909C123.751 104.921 122.902 105.825 121.816 106.624C120.736 107.419 119.35 108.215 117.649 109.013L103.088 115.85L102.525 104.002L102.179 96.5566L101.621 84.815C101.571 83.7284 102.173 82.7236 103.157 82.2618L116.127 76.1715C120.246 74.2375 122.962 74.659 124.271 77.4469L124.264 77.4504Z" fill="white"/>
<path d="M111.483 41.0969L116.316 41.7972C117.353 41.9508 118.104 42.3384 118.567 42.9784C119.03 43.6185 119.193 44.4082 119.052 45.3769C118.915 46.3347 118.517 47.0631 117.873 47.5552C117.229 48.0473 116.388 48.2166 115.371 48.0709L112.196 47.6125L111.655 51.3233L110.038 51.0897L111.479 41.1078L111.483 41.0969ZM115.508 46.6709C116.022 46.7457 116.452 46.643 116.795 46.3737C117.138 46.1045 117.349 45.6894 117.425 45.1394C117.508 44.5859 117.424 44.138 117.184 43.7995C116.943 43.461 116.554 43.2467 116.011 43.1675L112.894 42.7179L112.384 46.2247L115.501 46.6744L115.508 46.6709Z" fill="white"/>
<path d="M120.079 51.6001C119.522 50.4899 119.508 49.1154 120.049 47.4805C120.59 45.8456 121.418 44.744 122.531 44.1941C123.642 43.6367 124.965 43.6109 126.495 44.1201C128.032 44.6258 129.083 45.4412 129.64 46.5513C130.197 47.6615 130.211 49.036 129.67 50.6709C129.129 52.3058 128.301 53.4073 127.188 53.9573C126.078 54.5147 124.751 54.5331 123.213 54.0273C121.687 53.5255 120.647 52.7141 120.083 51.6074L120.079 51.6001ZM128.047 50.2325L128.103 50.0621C128.878 47.6764 128.203 46.1248 126.061 45.4251C123.933 44.7184 122.465 45.552 121.661 47.9332L121.605 48.1037C120.82 50.4671 121.505 52.0044 123.644 52.715C125.794 53.4295 127.265 52.6033 128.04 50.2359L128.047 50.2325Z" fill="white"/>
<path d="M133.037 46.4817L134.521 47.3552L132.66 54.1947C132.595 54.4416 132.437 54.9311 132.193 55.6597L132.254 55.6941L133.255 54.5383L138.033 49.4154L139.914 50.518L137.815 57.2164C137.732 57.4994 137.559 57.9776 137.312 58.6622L137.373 58.6966C137.884 58.1318 138.233 57.7603 138.424 57.5713L143.452 52.5934L144.81 53.3908L137.259 60.6636L135.493 59.6333L137.575 52.8797C137.698 52.5063 137.867 52.0025 138.102 51.3687L138.041 51.3343C137.577 51.9039 137.235 52.3085 137.006 52.5513L132.139 57.6794L130.374 56.649L133.025 46.5143L133.037 46.4817Z" fill="white"/>
<path d="M146.438 54.937L152.278 60.1464L151.349 61.187L146.725 57.0674L144.842 59.1882L148.983 62.8756L148.055 63.9162L143.914 60.2288L141.88 62.5103L146.568 66.69L145.64 67.7306L139.732 62.4719L146.441 54.9444L146.438 54.937Z" fill="white"/>
<path d="M154.269 62.217L157.555 66.3511C158.204 67.1748 158.502 67.9643 158.425 68.7226C158.348 69.4808 157.955 70.1436 157.246 70.7109C156.702 71.147 156.141 71.3926 155.562 71.4477C154.983 71.5029 154.42 71.3793 153.879 71.0554L151.917 75.4693L150.812 74.0752L152.686 69.9368L150.552 67.2565L147.384 69.7731L146.37 68.4982L154.273 62.2244L154.269 62.217ZM153.842 69.1686C154.168 69.575 154.535 69.7997 154.958 69.854C155.377 69.9009 155.797 69.7578 156.211 69.4281C156.606 69.1162 156.819 68.7633 156.855 68.3768C156.89 67.9903 156.739 67.5736 156.402 67.145L154.198 64.3715L151.641 66.4026L153.845 69.176L153.842 69.1686Z" fill="white"/>
<path d="M163.281 75.1606L166.447 81.6344L165.193 82.2503L162.743 77.2451L160.065 78.5569L162.278 83.0775L161.024 83.6934L158.814 79.1802L154.945 81.0692L154.228 79.6006L163.292 75.1645L163.281 75.1606Z" fill="white"/>
<path d="M167.382 84.1645L168.835 89.2402C169.121 90.2523 169.089 91.0884 168.729 91.763C168.369 92.4375 167.754 92.8974 166.879 93.1463C166.209 93.3344 165.594 93.3521 165.036 93.1812C164.477 93.0103 164.014 92.6772 163.632 92.1708L160.129 95.4941L159.641 93.7827L162.959 90.6813L162.017 87.3872L158.127 88.5009L157.68 86.9329L167.382 84.1645ZM164.318 90.4225C164.463 90.9231 164.717 91.2729 165.085 91.4793C165.453 91.6858 165.891 91.7148 166.402 91.574C166.88 91.4396 167.215 91.192 167.403 90.8422C167.591 90.4923 167.602 90.054 167.454 89.5277L166.478 86.1231L163.342 87.0178L164.318 90.4225Z" fill="white"/>
<path d="M161.483 97.0522C162.278 96.0924 163.53 95.5312 165.241 95.3688C166.963 95.2103 168.293 95.5245 169.253 96.3193C170.212 97.1141 170.76 98.3191 170.914 99.9163C171.065 101.524 170.748 102.81 169.953 103.77C169.158 104.73 167.905 105.291 166.187 105.457C164.469 105.623 163.136 105.301 162.176 104.507C161.224 103.708 160.669 102.507 160.515 100.891C160.368 99.2906 160.688 98.0121 161.472 97.0483L161.483 97.0522ZM165.932 103.799L166.104 103.781C168.599 103.539 169.748 102.296 169.533 100.05C169.322 97.8121 167.965 96.8065 165.471 97.03L165.298 97.0477C162.818 97.2825 161.684 98.5191 161.899 100.765C162.11 103.021 163.46 104.03 165.932 103.799Z" fill="white"/>
<path d="M171.192 107.773L170.931 110.215L164.273 111.645C163.862 111.729 163.264 111.821 162.487 111.915L162.478 111.973C163.279 112.238 163.844 112.442 164.169 112.596L170.38 115.366L170.127 117.768L160.099 116.709L160.267 115.087L166.817 115.775L168.613 116.024L168.626 115.918C168.199 115.776 167.858 115.647 167.612 115.546L160.557 112.361L160.705 110.946L168.27 109.335C168.424 109.298 168.677 109.261 169.04 109.208L169.337 109.167L169.347 109.091L167.545 108.944L160.994 108.256L161.157 106.718L171.192 107.773Z" fill="white"/>
<path d="M168.72 124.421L168.067 126.01L161.035 125.124C160.784 125.088 160.278 125.01 159.525 124.867L159.494 124.936L160.775 125.76L166.516 129.78L165.691 131.791L158.765 130.648C158.473 130.604 157.975 130.504 157.263 130.352L157.232 130.42C157.857 130.849 158.285 131.144 158.493 131.299L164.125 135.586L163.526 137.041L155.276 130.58L156.05 128.692L163.028 129.81C163.418 129.871 163.938 129.979 164.603 130.127L164.634 130.058C164.007 129.685 163.557 129.4 163.285 129.203L157.524 125.103L158.298 123.214L168.705 124.428L168.72 124.421Z" fill="white"/>
<path d="M162.183 138.736L161.344 140.141L152.686 134.964L153.525 133.559L162.183 138.736Z" fill="white"/>
<path d="M157.168 143.799L159.189 141.126L160.312 141.979L155.276 148.631L154.154 147.777L156.175 145.104L149.258 139.868L150.244 138.566L157.161 143.802L157.168 143.799Z" fill="white"/>
<path d="M153.781 150.308L152.594 151.434L149.695 148.373L145.96 151.913L148.863 154.982L147.677 156.107L140.738 148.788L141.924 147.662L144.987 150.899L148.722 147.358L145.659 144.121L146.845 142.996L153.784 150.316L153.781 150.308Z" fill="white"/>
<path d="M145.266 157.835L143.952 158.804L137.972 150.682L139.286 149.713L145.266 157.835Z" fill="white"/>
<path d="M141.58 160.576L140.272 161.307L132.8 157.984C132.63 157.91 132.402 157.791 132.117 157.645L132.065 157.706L132.436 158.344L135.587 163.94L134.246 164.696L129.306 155.906L130.592 155.184L138.11 158.568C138.222 158.614 138.36 158.676 138.504 158.753C138.648 158.83 138.753 158.88 138.814 158.914L138.874 158.868L138.499 158.223L135.309 152.545L136.651 151.789L141.594 160.587L141.58 160.576Z" fill="white"/>
<path d="M101.079 170.947L96.2421 170.294C95.2004 170.151 94.4498 169.764 93.9829 169.134C93.516 168.505 93.3459 167.701 93.4754 166.746C93.6015 165.785 93.9921 165.06 94.6404 164.557C95.2848 164.065 96.119 163.881 97.1424 164.023L100.315 164.456L100.82 160.744L102.437 160.959L101.083 170.954L101.079 170.947ZM97.0095 165.412C96.4995 165.344 96.0694 165.447 95.73 165.724C95.3906 166.001 95.1867 166.412 95.111 166.962C95.0353 167.512 95.1193 167.96 95.3594 168.299C95.5996 168.637 95.9929 168.84 96.5355 168.92L99.6572 169.34L100.139 165.829L97.0169 165.408L97.0095 165.412Z" fill="white"/>
<path d="M92.3897 160.513C92.9618 161.617 92.9863 162.995 92.4561 164.634C91.9259 166.273 91.1093 167.378 90.0026 167.943C88.8959 168.508 87.5758 168.541 86.0456 168.05C84.5046 167.555 83.4499 166.751 82.8778 165.647C82.3057 164.544 82.2847 163.173 82.8114 161.527C83.338 159.881 84.1582 158.783 85.2649 158.218C86.3716 157.653 87.6991 157.616 89.2401 158.111C90.7703 158.602 91.8214 159.399 92.3971 160.51L92.3897 160.513ZM84.4346 161.947L84.3793 162.117C83.6149 164.507 84.3115 166.048 86.4615 166.744C88.5972 167.429 90.0581 166.581 90.8333 164.195L90.8887 164.025C91.6525 161.654 90.9629 160.127 88.8129 159.431C86.6554 158.738 85.1985 159.576 84.4346 161.947Z" fill="white"/>
<path d="M79.4768 165.746L77.9813 164.887L79.7805 158.032C79.845 157.785 79.9959 157.299 80.237 156.563L80.1757 156.528L79.1859 157.688L74.4536 162.852L72.5652 161.771L74.6095 155.053C74.6932 154.77 74.855 154.288 75.1021 153.604L75.0408 153.569C74.5333 154.142 74.1843 154.513 74.0006 154.699L69.0123 159.721L67.6503 158.935L75.1369 151.602L76.9062 152.621L74.8788 159.394C74.7672 159.772 74.5902 160.279 74.3627 160.909L74.4239 160.944C74.8767 160.37 75.2192 159.966 75.4481 159.723L80.2683 154.553L82.0376 155.573L79.4699 165.732L79.4768 165.746Z" fill="white"/>
<path d="M65.9818 157.399L60.097 152.247L61.0185 151.191L65.6762 155.268L67.5452 153.136L63.3741 149.481L64.2955 148.425L68.4667 152.08L70.4823 149.78L65.7602 145.644L66.6817 144.588L72.6308 149.8L65.9857 157.388L65.9818 157.399Z" fill="white"/>
<path d="M58.1009 150.187L54.7815 146.078C54.1183 145.261 53.8307 144.475 53.8896 143.717C53.9559 142.954 54.3487 142.292 55.0536 141.717C55.5979 141.281 56.156 141.028 56.7314 140.965C57.3067 140.903 57.8701 141.026 58.4142 141.339L60.3326 136.91L61.4532 138.297L59.6147 142.455L61.7674 145.117L64.9147 142.574L65.9432 143.842L58.1009 150.187ZM58.4735 143.234C58.1473 142.828 57.7726 142.606 57.3535 142.56C56.9344 142.513 56.5142 142.656 56.1039 142.993C55.7197 143.309 55.5063 143.662 55.4673 144.059C55.4282 144.456 55.5827 144.862 55.9375 145.291L58.1684 148.043L60.7078 145.994L58.4769 143.241L58.4735 143.234Z" fill="white"/>
<path d="M48.935 137.298L45.769 130.824L47.0231 130.208L49.4725 135.213L52.1508 133.901L49.938 129.381L51.1921 128.765L53.405 133.286L57.2709 131.389L57.9875 132.858L48.9241 137.294L48.935 137.298Z" fill="white"/>
<path d="M44.8028 128.362L43.3088 123.296C43.0083 122.291 43.0365 121.448 43.3966 120.773C43.746 120.095 44.3677 119.631 45.2367 119.368C45.903 119.172 46.5175 119.155 47.08 119.315C47.6425 119.475 48.1057 119.808 48.4954 120.311L51.966 116.957L52.4685 118.662L49.175 121.797L50.1501 125.084L54.0267 123.941L54.4888 125.502L44.8102 128.359L44.8028 128.362ZM47.8085 122.077C47.6637 121.577 47.4092 121.227 47.0268 121.027C46.6517 120.824 46.2138 120.795 45.7093 120.951C45.2344 121.093 44.8959 121.333 44.719 121.687C44.5422 122.04 44.5205 122.475 44.6792 123.005L45.6807 126.407L48.8135 125.486L47.812 122.085L47.8085 122.077Z" fill="white"/>
<path d="M50.593 115.417C49.809 116.381 48.5632 116.957 46.8411 117.134C45.1191 117.311 43.7818 117 42.8255 116.213C41.8582 115.421 41.2992 114.231 41.1415 112.626C40.9802 111.014 41.2896 109.731 42.0701 108.76C42.8541 107.797 44.0999 107.221 45.8219 107.044C47.5366 106.871 48.8778 107.17 49.8376 107.965C50.7975 108.76 51.3673 109.955 51.5251 111.559C51.6903 113.16 51.3809 114.443 50.5969 115.407L50.593 115.417ZM46.0879 108.706L45.9157 108.724C43.4239 108.991 42.2858 110.238 42.5191 112.485C42.7455 114.716 44.106 115.711 46.6082 115.465L46.7804 115.448C49.2609 115.195 50.3808 113.947 50.1475 111.701C49.9181 109.444 48.5649 108.445 46.0844 108.699L46.0879 108.706Z" fill="white"/>
<path d="M40.7938 104.794L41.026 102.347L47.6666 100.863C48.078 100.778 48.6725 100.679 49.4535 100.574L49.4623 100.516C48.6572 100.262 48.0921 100.058 47.7596 99.9074L41.5222 97.1952L41.7569 94.7925L51.7979 95.7639L51.6408 97.39L45.0816 96.7604L43.2856 96.5297L43.2794 96.6319C43.7071 96.774 44.044 96.8956 44.29 96.9967L51.3724 100.124L51.235 101.543L43.6833 103.22C43.5289 103.257 43.2793 103.302 42.9162 103.355L42.6117 103.398L42.6025 103.475L44.4048 103.603L50.964 104.233L50.82 105.772L40.7791 104.8L40.7938 104.794Z" fill="white"/>
<path d="M43.1278 88.1196L43.7666 86.52L50.807 87.3479C51.0622 87.3725 51.5643 87.4616 52.3213 87.5936L52.3522 87.5249L51.0641 86.7037L45.2852 82.7384L46.0953 80.7154L53.0307 81.8002C53.322 81.8439 53.8167 81.9365 54.5293 82.0893L54.5602 82.0207C53.9275 81.5957 53.5033 81.3075 53.2952 81.1525L47.6253 76.9194L48.2131 75.4611L56.5197 81.8497L55.7601 83.7497L48.773 82.6892C48.3834 82.6284 47.8596 82.5314 47.1979 82.3909L47.1669 82.4595C47.801 82.8297 48.2508 83.1149 48.5203 83.3043L54.3117 87.354L53.5521 89.254L43.1347 88.1344L43.1278 88.1196Z" fill="white"/>
<path d="M49.5347 73.7575L50.3625 72.349L59.0663 77.45L58.2385 78.8586L49.5347 73.7575Z" fill="white"/>
<path d="M54.4993 68.6467L52.4959 71.3383L51.3617 70.499L56.3362 63.8131L57.4704 64.6524L55.467 67.344L62.4293 72.5226L61.4541 73.8289L54.4919 68.6502L54.4993 68.6467Z" fill="white"/>
<path d="M57.8475 62.0923L59.023 60.9628L61.9484 64.0025L65.651 60.4319L62.7255 57.3921L63.901 56.2626L70.9032 63.5254L69.7278 64.655L66.6346 61.4502L62.932 65.0209L66.0252 68.2256L64.8498 69.3551L57.8475 62.0923Z" fill="white"/>
<path d="M66.3092 54.4917L67.6163 53.5079L73.6629 61.5804L72.3559 62.5642L66.3092 54.4917Z" fill="white"/>
<path d="M69.9631 51.7202L71.2643 50.9739L78.7635 54.2398C78.9335 54.3135 79.1573 54.425 79.4459 54.5783L79.4986 54.5174L79.1195 53.8831L75.924 48.3077L77.2622 47.544L82.276 56.3L81.0044 57.0325L73.4626 53.7143C73.3431 53.6712 73.2131 53.6058 73.0688 53.5292C72.9245 53.4525 72.8198 53.4024 72.7585 53.368L72.7023 53.4215L73.0849 54.0632L76.3259 59.7165L74.9878 60.4802L69.974 51.7242L69.9631 51.7202Z" fill="white"/>
</svg>
