<svg width="161" height="1146" viewBox="0 0 161 1146" fill="none" xmlns="http://www.w3.org/2000/svg">
<g opacity="0.3">
<path d="M4.17114 379C1.86899 379 0 380.869 0 383.171C0 385.473 1.86899 387.342 4.17114 387.342C6.47328 387.342 8.34227 385.473 8.34227 383.171C8.34227 380.869 6.47328 379 4.17114 379Z" fill="white"/>
<path d="M4.17114 454.867C1.86899 454.867 0 456.736 0 459.038C0 461.34 1.86899 463.209 4.17114 463.209C6.47328 463.209 8.34227 461.34 8.34227 459.038C8.34227 456.736 6.47328 454.867 4.17114 454.867Z" fill="white"/>
<path d="M4.17114 530.733C1.86899 530.733 0 532.602 0 534.904C0 537.206 1.86899 539.075 4.17114 539.075C6.47328 539.075 8.34227 537.206 8.34227 534.904C8.34227 532.602 6.47328 530.733 4.17114 530.733Z" fill="white"/>
<path d="M80.0377 387.342C82.3414 387.342 84.2089 385.475 84.2089 383.171C84.2089 380.867 82.3414 379 80.0377 379C77.7341 379 75.8666 380.867 75.8666 383.171C75.8666 385.475 77.7341 387.342 80.0377 387.342Z" fill="white"/>
<path d="M80.0377 454.867C77.7356 454.867 75.8666 456.736 75.8666 459.038C75.8666 461.34 77.7356 463.209 80.0377 463.209C82.3399 463.209 84.2089 461.34 84.2089 459.038C84.2089 456.736 82.3399 454.867 80.0377 454.867Z" fill="white"/>
<path d="M80.0377 530.733C77.7356 530.733 75.8666 532.602 75.8666 534.904C75.8666 537.206 77.7356 539.075 80.0377 539.075C82.3399 539.075 84.2089 537.206 84.2089 534.904C84.2089 532.602 82.3399 530.733 80.0377 530.733Z" fill="white"/>
<path d="M155.904 387.342C158.208 387.342 160.075 385.475 160.075 383.171C160.075 380.867 158.208 379 155.904 379C153.601 379 151.733 380.867 151.733 383.171C151.733 385.475 153.601 387.342 155.904 387.342Z" fill="white"/>
<path d="M155.904 454.867C153.602 454.867 151.733 456.736 151.733 459.038C151.733 461.34 153.602 463.209 155.904 463.209C158.206 463.209 160.075 461.34 160.075 459.038C160.075 456.736 158.206 454.867 155.904 454.867Z" fill="white"/>
<path d="M155.904 530.733C153.602 530.733 151.733 532.602 151.733 534.904C151.733 537.206 153.602 539.075 155.904 539.075C158.206 539.075 160.075 537.206 160.075 534.904C160.075 532.602 158.206 530.733 155.904 530.733Z" fill="white"/>
<path d="M4.17114 606.6C1.86899 606.6 0 608.469 0 610.771C0 613.073 1.86899 614.942 4.17114 614.942C6.47328 614.942 8.34227 613.073 8.34227 610.771C8.34227 608.469 6.47328 606.6 4.17114 606.6Z" fill="white"/>
<path d="M4.17114 682.466C1.86899 682.466 0 684.335 0 686.637C0 688.94 1.86899 690.809 4.17114 690.809C6.47328 690.809 8.34227 688.94 8.34227 686.637C8.34227 684.335 6.47328 682.466 4.17114 682.466Z" fill="white"/>
<path d="M4.17114 758.333C1.86899 758.333 0 760.202 0 762.504C0 764.806 1.86899 766.675 4.17114 766.675C6.47328 766.675 8.34227 764.806 8.34227 762.504C8.34227 760.202 6.47328 758.333 4.17114 758.333Z" fill="white"/>
<path d="M80.0377 606.6C77.7356 606.6 75.8666 608.469 75.8666 610.771C75.8666 613.073 77.7356 614.942 80.0377 614.942C82.3399 614.942 84.2089 613.073 84.2089 610.771C84.2089 608.469 82.3399 606.6 80.0377 606.6Z" fill="white"/>
<path d="M80.0377 682.466C77.7356 682.466 75.8666 684.335 75.8666 686.637C75.8666 688.94 77.7356 690.809 80.0377 690.809C82.3399 690.809 84.2089 688.94 84.2089 686.637C84.2089 684.335 82.3399 682.466 80.0377 682.466Z" fill="white"/>
<path d="M80.0377 758.333C77.7356 758.333 75.8666 760.202 75.8666 762.504C75.8666 764.806 77.7356 766.675 80.0377 766.675C82.3399 766.675 84.2089 764.806 84.2089 762.504C84.2089 760.202 82.3399 758.333 80.0377 758.333Z" fill="white"/>
<path d="M155.904 606.6C153.602 606.6 151.733 608.469 151.733 610.771C151.733 613.073 153.602 614.942 155.904 614.942C158.206 614.942 160.075 613.073 160.075 610.771C160.075 608.469 158.206 606.6 155.904 606.6Z" fill="white"/>
<path d="M155.904 682.466C153.602 682.466 151.733 684.335 151.733 686.637C151.733 688.94 153.602 690.809 155.904 690.809C158.206 690.809 160.075 688.94 160.075 686.637C160.075 684.335 158.206 682.466 155.904 682.466Z" fill="white"/>
<path d="M155.904 758.333C153.602 758.333 151.733 760.202 151.733 762.504C151.733 764.806 153.602 766.675 155.904 766.675C158.206 766.675 160.075 764.806 160.075 762.504C160.075 760.202 158.206 758.333 155.904 758.333Z" fill="white"/>
<path d="M4.17114 834.191C1.86899 834.191 0 836.06 0 838.363C0 840.665 1.86899 842.534 4.17114 842.534C6.47328 842.534 8.34227 840.665 8.34227 838.363C8.34227 836.06 6.47328 834.191 4.17114 834.191Z" fill="white"/>
<path d="M4.17114 910.058C1.86899 910.058 0 911.927 0 914.229C0 916.531 1.86899 918.4 4.17114 918.4C6.47328 918.4 8.34227 916.531 8.34227 914.229C8.34227 911.927 6.47328 910.058 4.17114 910.058Z" fill="white"/>
<path d="M4.17114 985.925C1.86899 985.925 0 987.794 0 990.096C0 992.398 1.86899 994.267 4.17114 994.267C6.47328 994.267 8.34227 992.398 8.34227 990.096C8.34227 987.794 6.47328 985.925 4.17114 985.925Z" fill="white"/>
<path d="M80.0377 834.191C77.7356 834.191 75.8666 836.06 75.8666 838.363C75.8666 840.665 77.7356 842.534 80.0377 842.534C82.3399 842.534 84.2089 840.665 84.2089 838.363C84.2089 836.06 82.3399 834.191 80.0377 834.191Z" fill="white"/>
<path d="M80.0377 910.058C77.7356 910.058 75.8666 911.927 75.8666 914.229C75.8666 916.531 77.7356 918.4 80.0377 918.4C82.3399 918.4 84.2089 916.531 84.2089 914.229C84.2089 911.927 82.3399 910.058 80.0377 910.058Z" fill="white"/>
<path d="M80.0377 985.925C77.7356 985.925 75.8666 987.794 75.8666 990.096C75.8666 992.398 77.7356 994.267 80.0377 994.267C82.3399 994.267 84.2089 992.398 84.2089 990.096C84.2089 987.794 82.3399 985.925 80.0377 985.925Z" fill="white"/>
<path d="M155.904 834.191C153.602 834.191 151.733 836.06 151.733 838.363C151.733 840.665 153.602 842.534 155.904 842.534C158.206 842.534 160.075 840.665 160.075 838.363C160.075 836.06 158.206 834.191 155.904 834.191Z" fill="white"/>
<path d="M155.904 910.058C153.602 910.058 151.733 911.927 151.733 914.229C151.733 916.531 153.602 918.4 155.904 918.4C158.206 918.4 160.075 916.531 160.075 914.229C160.075 911.927 158.206 910.058 155.904 910.058Z" fill="white"/>
<path d="M155.904 985.925C153.602 985.925 151.733 987.794 151.733 990.096C151.733 992.398 153.602 994.267 155.904 994.267C158.206 994.267 160.075 992.398 160.075 990.096C160.075 987.794 158.206 985.925 155.904 985.925Z" fill="white"/>
<path d="M4.17114 1061.79C1.86899 1061.79 0 1063.66 0 1065.96C0 1068.26 1.86899 1070.13 4.17114 1070.13C6.47328 1070.13 8.34227 1068.26 8.34227 1065.96C8.34227 1063.66 6.47328 1061.79 4.17114 1061.79Z" fill="white"/>
<path d="M4.17114 1137.66C1.86899 1137.66 0 1139.53 0 1141.83C0 1144.13 1.86899 1146 4.17114 1146C6.47328 1146 8.34227 1144.13 8.34227 1141.83C8.34227 1139.53 6.47328 1137.66 4.17114 1137.66Z" fill="white"/>
<path d="M80.0377 1070.13C82.3414 1070.13 84.2089 1068.27 84.2089 1065.96C84.2089 1063.66 82.3414 1061.79 80.0377 1061.79C77.7341 1061.79 75.8666 1063.66 75.8666 1065.96C75.8666 1068.27 77.7341 1070.13 80.0377 1070.13Z" fill="white"/>
<path d="M80.0377 1137.66C77.7356 1137.66 75.8666 1139.53 75.8666 1141.83C75.8666 1144.13 77.7356 1146 80.0377 1146C82.3399 1146 84.2089 1144.13 84.2089 1141.83C84.2089 1139.53 82.3399 1137.66 80.0377 1137.66Z" fill="white"/>
<path d="M155.904 1070.13C158.208 1070.13 160.075 1068.27 160.075 1065.96C160.075 1063.66 158.208 1061.79 155.904 1061.79C153.601 1061.79 151.733 1063.66 151.733 1065.96C151.733 1068.27 153.601 1070.13 155.904 1070.13Z" fill="white"/>
<path d="M155.904 1137.66C153.602 1137.66 151.733 1139.53 151.733 1141.83C151.733 1144.13 153.602 1146 155.904 1146C158.206 1146 160.075 1144.13 160.075 1141.83C160.075 1139.53 158.206 1137.66 155.904 1137.66Z" fill="white"/>
</g>
<g opacity="0.3">
<path d="M4.17114 0.191406C1.86899 0.191406 0 2.0604 0 4.36255C0 6.6647 1.86899 8.53369 4.17114 8.53369C6.47328 8.53369 8.34227 6.6647 8.34227 4.36255C8.34227 2.0604 6.47328 0.191406 4.17114 0.191406Z" fill="white"/>
<path d="M4.17114 76.058C1.86899 76.058 0 77.927 0 80.2291C0 82.5313 1.86899 84.4003 4.17114 84.4003C6.47328 84.4003 8.34227 82.5313 8.34227 80.2291C8.34227 77.927 6.47328 76.058 4.17114 76.058Z" fill="white"/>
<path d="M4.17114 151.925C1.86899 151.925 0 153.794 0 156.096C0 158.398 1.86899 160.267 4.17114 160.267C6.47328 160.267 8.34227 158.398 8.34227 156.096C8.34227 153.794 6.47328 151.925 4.17114 151.925Z" fill="white"/>
<path d="M80.0377 0.191406C77.7356 0.191406 75.8666 2.0604 75.8666 4.36255C75.8666 6.6647 77.7356 8.53369 80.0377 8.53369C82.3399 8.53369 84.2089 6.6647 84.2089 4.36255C84.2089 2.0604 82.3399 0.191406 80.0377 0.191406Z" fill="white"/>
<path d="M80.0377 76.058C77.7356 76.058 75.8666 77.927 75.8666 80.2291C75.8666 82.5313 77.7356 84.4003 80.0377 84.4003C82.3399 84.4003 84.2089 82.5313 84.2089 80.2291C84.2089 77.927 82.3399 76.058 80.0377 76.058Z" fill="white"/>
<path d="M80.0377 151.925C77.7356 151.925 75.8666 153.794 75.8666 156.096C75.8666 158.398 77.7356 160.267 80.0377 160.267C82.3399 160.267 84.2089 158.398 84.2089 156.096C84.2089 153.794 82.3399 151.925 80.0377 151.925Z" fill="white"/>
<path d="M155.904 0.191406C153.602 0.191406 151.733 2.0604 151.733 4.36255C151.733 6.6647 153.602 8.53369 155.904 8.53369C158.206 8.53369 160.075 6.6647 160.075 4.36255C160.075 2.0604 158.206 0.191406 155.904 0.191406Z" fill="white"/>
<path d="M155.904 76.058C153.602 76.058 151.733 77.927 151.733 80.2291C151.733 82.5313 153.602 84.4003 155.904 84.4003C158.206 84.4003 160.075 82.5313 160.075 80.2291C160.075 77.927 158.206 76.058 155.904 76.058Z" fill="white"/>
<path d="M155.904 151.925C153.602 151.925 151.733 153.794 151.733 156.096C151.733 158.398 153.602 160.267 155.904 160.267C158.206 160.267 160.075 158.398 160.075 156.096C160.075 153.794 158.206 151.925 155.904 151.925Z" fill="white"/>
<path d="M4.17114 227.791C1.86899 227.791 0 229.66 0 231.962C0 234.264 1.86899 236.133 4.17114 236.133C6.47328 236.133 8.34227 234.264 8.34227 231.962C8.34227 229.66 6.47328 227.791 4.17114 227.791Z" fill="white"/>
<path d="M4.17114 303.658C1.86899 303.658 0 305.527 0 307.829C0 310.131 1.86899 312 4.17114 312C6.47328 312 8.34227 310.131 8.34227 307.829C8.34227 305.527 6.47328 303.658 4.17114 303.658Z" fill="white"/>
<path d="M80.0377 236.133L84.2089 231.962C84.2089 231.962 82.3414 227.791 80.0377 227.791C77.7341 227.791 75.8666 229.659 75.8666 231.962C75.8666 234.266 77.7341 236.133 80.0377 236.133Z" fill="white"/>
<path d="M80.0377 303.658C77.7356 303.658 75.8666 305.527 75.8666 307.829C75.8666 310.131 80.0377 312 80.0377 312L84.2089 307.829C84.2089 305.527 82.3399 303.658 80.0377 303.658Z" fill="white"/>
<path d="M155.904 236.133C158.208 236.133 160.075 234.266 160.075 231.962C160.075 229.659 158.208 227.791 155.904 227.791C153.601 227.791 151.733 229.659 151.733 231.962C151.733 234.266 153.601 236.133 155.904 236.133Z" fill="white"/>
<path d="M155.904 303.658C153.602 303.658 151.733 305.527 151.733 307.829C151.733 310.131 153.602 312 155.904 312C158.206 312 160.075 310.131 160.075 307.829C160.075 305.527 158.206 303.658 155.904 303.658Z" fill="white"/>
</g>
</svg>
